<?xml version="1.0" standalone="no"?>
<!DOCTYPE svg PUBLIC "-//W3C//DTD SVG 20010904//EN"
 "http://www.w3.org/TR/2001/REC-SVG-20010904/DTD/svg10.dtd">
<svg version="1.0" xmlns="http://www.w3.org/2000/svg"
 width="300.000000pt" height="300.000000pt" viewBox="0 0 300.000000 300.000000"
 preserveAspectRatio="xMidYMid meet">

<g transform="translate(0.000000,300.000000) scale(0.100000,-0.100000)"
fill="#000000" stroke="none">
<path d="M1030 2969 c-25 -4 -71 -11 -102 -14 -66 -7 -70 -16 -42 -90 8 -22
30 -89 49 -150 19 -60 43 -117 53 -125 20 -17 30 -39 59 -127 11 -35 16 -63
11 -63 -5 0 0 -14 13 -31 14 -20 25 -27 31 -21 13 13 5 48 -11 44 -7 -1 -10 1
-7 6 2 4 -6 34 -19 66 -20 48 -22 62 -12 76 11 16 15 16 50 3 21 -9 37 -22 38
-32 0 -9 3 -11 5 -4 3 7 11 9 19 7 10 -4 11 -12 6 -27 -14 -36 -4 -259 12
-275 12 -11 14 -8 13 20 -1 18 -6 39 -10 47 -7 10 -5 12 4 6 23 -14 29 17 7
36 -12 9 -18 21 -14 25 4 5 12 2 16 -5 10 -16 17 -5 19 33 2 29 2 29 -18 11
-19 -18 -20 -17 -20 3 0 11 5 24 10 27 6 3 7 18 4 32 -5 18 -2 30 8 37 13 10
13 21 1 90 -7 44 -12 84 -10 90 2 5 9 -23 16 -62 15 -82 -3 -67 181 -145 116
-50 170 -68 181 -61 14 8 11 61 -6 101 -8 19 -15 44 -15 54 0 9 7 24 15 33 8
8 15 19 15 25 0 19 -53 51 -87 51 -19 0 -47 7 -62 15 -16 8 -31 11 -34 8 -12
-11 -37 19 -37 44 0 22 3 24 25 19 14 -4 25 -4 25 -1 0 10 -96 51 -112 47 -10
-2 -18 2 -18 8 0 7 -11 26 -25 42 -20 24 -23 33 -14 44 9 11 7 14 -14 14 -13
0 -30 -7 -37 -15 -9 -11 -16 -13 -23 -6 -12 12 8 41 29 41 21 0 17 18 -6 25
-11 3 -19 11 -17 17 4 22 -23 19 -32 -4 l-10 -23 0 23 c-1 25 -19 27 -101 11z
m124 -89 c4 -31 3 -40 -4 -30 -5 8 -10 30 -10 49 0 45 6 37 14 -19z m-92 -107
c8 -21 11 -49 8 -63 l-6 -25 -17 26 c-10 15 -21 43 -24 63 -8 50 19 49 39 -1z
m28 -198 c14 -16 10 -18 -14 -9 -9 3 -16 10 -16 15 0 14 16 11 30 -6z m-49 -9
c5 3 9 0 9 -6 0 -15 -23 -7 -26 8 -1 7 0 8 3 2 2 -5 9 -8 14 -4z"/>
<path d="M1497 2973 c-229 -3 -238 -4 -232 -22 4 -13 0 -21 -12 -24 -10 -3 -3
-5 14 -6 23 -1 37 -9 49 -27 13 -19 23 -24 41 -19 17 4 23 1 23 -12 1 -18 76
-73 100 -73 8 0 10 -9 5 -27 -9 -36 7 -21 21 20 10 28 16 33 57 37 44 6 47 4
56 -22 6 -16 8 -35 5 -43 -4 -8 -2 -15 4 -15 15 0 28 23 26 48 -1 18 7 24 45
36 37 11 45 17 43 34 -2 16 1 19 17 15 28 -7 60 5 43 16 -10 6 -10 10 0 19 15
12 128 20 144 9 10 -6 23 19 24 44 0 10 -60 17 -66 7 -3 -4 -1 -8 5 -8 6 0 8
-7 5 -15 -9 -23 -33 -19 -27 5 3 11 4 20 2 20 -32 5 -203 6 -392 3z m20 -64
c6 -6 29 -10 51 -7 28 2 38 0 35 -9 -6 -16 -91 -13 -105 4 -12 15 -112 18
-103 3 3 -5 -1 -10 -11 -10 -13 0 -14 3 -4 15 15 18 120 21 137 4z m222 -2 c8
-10 7 -14 -4 -14 -8 0 -15 4 -15 8 0 4 -24 10 -52 12 l-53 3 56 2 c37 1 60 -3
68 -11z"/>
<path d="M1990 2967 c0 -8 -3 -22 -6 -31 -4 -11 -1 -16 10 -16 9 0 16 -4 16
-10 0 -5 7 -7 15 -4 8 4 15 2 15 -3 0 -5 15 -9 33 -10 17 0 39 -2 47 -4 10 -3
16 5 18 26 3 29 0 31 -50 44 -97 24 -98 24 -98 8z"/>
<path d="M1973 2880 c-7 -14 -19 -61 -28 -105 -21 -101 -23 -106 -24 -73 -1
15 3 37 8 50 15 41 24 104 12 93 -20 -20 -71 -128 -71 -151 0 -13 -9 -46 -20
-74 -11 -28 -20 -66 -20 -84 0 -29 -5 -37 -40 -55 -22 -11 -44 -20 -48 -20
-20 3 -32 -2 -27 -12 4 -6 14 -8 22 -5 8 3 12 2 9 -2 -3 -5 4 -16 15 -25 26
-23 25 -74 -2 -103 l-22 -23 37 -17 c20 -10 36 -22 36 -28 0 -6 7 -2 15 8 8
11 15 15 15 10 0 -5 20 -32 45 -59 37 -41 45 -46 45 -29 0 12 29 125 65 250
91 323 95 335 111 377 8 20 14 44 14 52 0 23 -26 18 -38 -7 -10 -22 -11 -22
-11 7 -1 22 -4 26 -13 17 -14 -14 -32 -16 -23 -3 3 5 1 12 -5 16 -5 3 -15 -6
-22 -22 l-11 -28 -7 35 c-6 35 -6 35 -17 10z m63 -111 c-7 -44 -24 -84 -32
-76 -9 9 -6 62 5 90 17 43 35 34 27 -14z m-119 -131 c-3 -7 -5 -2 -5 12 0 14
2 19 5 13 2 -7 2 -19 0 -25z m-13 -62 c-3 -21 -8 -35 -11 -32 -2 2 -1 20 3 40
3 21 8 35 11 32 2 -2 1 -20 -3 -40z m-20 -90 c-3 -21 -8 -35 -11 -32 -2 2 -1
20 3 40 3 21 8 35 11 32 2 -2 1 -20 -3 -40z m-17 -68 c-3 -8 -6 -5 -6 6 -1 11
2 17 5 13 3 -3 4 -12 1 -19z m-10 -50 c-3 -8 -6 -5 -6 6 -1 11 2 17 5 13 3 -3
4 -12 1 -19z"/>
<path d="M1308 2453 c6 -2 10 -9 7 -14 -4 -5 1 -6 10 -2 13 5 14 7 3 14 -7 5
-17 8 -23 8 -5 0 -4 -3 3 -6z"/>
<path d="M1130 2360 c1 -19 7 -46 14 -60 13 -23 14 -21 9 25 -6 59 -23 85 -23
35z"/>
<path d="M1425 2319 c-11 -17 1 -21 15 -4 8 9 8 15 2 15 -6 0 -14 -5 -17 -11z"/>
<path d="M1390 2290 c0 -5 5 -10 10 -10 6 0 10 5 10 10 0 6 -4 10 -10 10 -5 0
-10 -4 -10 -10z"/>
<path d="M1299 2273 c-13 -16 -12 -17 4 -4 9 7 17 15 17 17 0 8 -8 3 -21 -13z"/>
<path d="M1449 2273 c-13 -16 -12 -17 4 -4 9 7 17 15 17 17 0 8 -8 3 -21 -13z"/>
<path d="M1221 2260 c0 -14 6 -37 13 -52 10 -19 11 -27 3 -25 -7 1 -15 9 -19
17 -5 12 -7 11 -7 -3 -1 -11 8 -30 19 -44 21 -27 27 -48 10 -38 -18 11 -30
-44 -30 -132 0 -94 -5 -104 -13 -30 -8 64 -20 81 -27 37 -4 -19 -3 -39 0 -45
16 -26 29 -65 22 -65 -5 0 -13 12 -19 28 -7 18 -11 21 -12 10 -1 -10 8 -27 18
-37 11 -11 24 -29 31 -40 18 -34 29 -24 25 21 -3 29 -1 38 5 28 8 -13 10 -12
10 3 0 9 5 17 10 17 6 0 10 5 10 11 0 5 -4 8 -9 5 -4 -3 -17 4 -27 16 -19 21
-19 21 3 9 34 -18 46 -14 32 10 -9 17 -8 23 2 30 7 4 10 11 6 15 -3 4 -13 1
-22 -6 -21 -17 -32 -4 -17 20 7 11 12 34 12 51 0 25 3 30 16 25 13 -5 15 -2 9
11 -12 27 -25 115 -19 124 3 5 0 17 -5 26 -9 16 -11 15 -12 -7 -1 -23 -2 -23
-9 5 -7 28 -8 28 -9 5z"/>
<path d="M1500 2240 c-12 -7 -12 -12 -2 -22 9 -9 12 -9 12 1 0 7 4 9 10 6 6
-3 7 1 4 9 -7 19 -5 18 -24 6z"/>
<path d="M1271 2224 c0 -11 3 -14 6 -6 3 7 2 16 -1 19 -3 4 -6 -2 -5 -13z"/>
<path d="M1410 2205 c0 -21 18 -38 35 -32 9 4 13 12 9 19 -6 9 -9 9 -12 -1 -3
-8 -8 -7 -18 6 -7 10 -13 14 -14 8z"/>
<path d="M1107 2183 c-12 -12 -7 -28 12 -40 19 -12 19 -11 9 17 -11 33 -11 33
-21 23z"/>
<path d="M1156 2176 c10 -8 21 -12 24 -10 5 6 -21 24 -34 24 -6 0 -1 -6 10
-14z"/>
<path d="M1351 2147 c-13 -21 -12 -21 5 -5 10 10 16 20 13 22 -3 3 -11 -5 -18
-17z"/>
<path d="M1482 2149 c-18 -11 -38 -17 -43 -14 -5 4 -9 1 -9 -4 0 -6 -8 -11
-17 -12 -10 0 -13 -3 -7 -5 14 -6 -18 -120 -32 -117 -5 0 -15 -6 -23 -14 -12
-13 -11 -14 9 -8 19 6 21 4 15 -15 -6 -17 -1 -28 21 -47 16 -13 23 -22 17 -18
-9 4 -11 1 -6 -11 4 -11 8 -13 11 -6 5 16 29 15 35 -2 3 -7 25 -23 48 -34 l43
-21 75 56 c42 31 79 59 83 62 4 4 -7 49 -25 101 l-33 95 -66 3 c-54 2 -66 6
-61 17 6 18 6 18 -35 -6z"/>
<path d="M1767 2128 c-15 -18 -23 -38 -19 -47 6 -14 7 -14 10 1 2 10 9 15 18
11 12 -4 14 0 9 23 -5 22 -4 25 4 14 9 -12 11 -11 11 8 0 29 -4 28 -33 -10z"/>
<path d="M1896 2145 c4 -8 11 -15 16 -15 6 0 5 6 -2 15 -7 8 -14 15 -16 15 -2
0 -1 -7 2 -15z"/>
<path d="M1190 2140 c0 -8 5 -22 10 -30 9 -13 10 -13 10 0 0 8 -5 22 -10 30
-9 13 -10 13 -10 0z"/>
<path d="M1345 2080 c-3 -5 -1 -10 4 -10 6 0 11 5 11 10 0 6 -2 10 -4 10 -3 0
-8 -4 -11 -10z"/>
<path d="M1850 2068 c0 -19 2 -20 10 -8 13 19 13 30 0 30 -5 0 -10 -10 -10
-22z"/>
<path d="M1721 2062 c-6 -12 -4 -35 9 -72 17 -48 19 -51 20 -23 0 17 4 42 8
55 6 17 4 28 -9 40 -18 17 -19 17 -28 0z"/>
<path d="M1140 2028 c0 -23 3 -29 9 -19 8 12 4 51 -5 51 -2 0 -4 -15 -4 -32z"/>
<path d="M1323 2015 c-19 -22 -16 -26 12 -13 13 6 22 15 19 19 -7 12 -17 11
-31 -6z"/>
<path d="M1322 1935 c0 -16 2 -22 5 -12 2 9 2 23 0 30 -3 6 -5 -1 -5 -18z"/>
<path d="M1747 1911 c-9 -16 -17 -35 -17 -42 0 -8 9 4 21 25 24 45 21 59 -4
17z"/>
<path d="M1707 1915 c-4 -8 -2 -17 3 -20 6 -4 10 -4 10 -1 0 2 3 11 6 20 3 9
2 16 -4 16 -5 0 -12 -7 -15 -15z"/>
<path d="M1775 1899 c-11 -16 -1 -19 13 -3 7 8 8 14 3 14 -5 0 -13 -5 -16 -11z"/>
<path d="M1258 1877 c-3 -14 -1 -30 4 -35 4 -4 -1 -17 -11 -29 -11 -11 -17
-24 -13 -29 4 -4 1 -4 -6 0 -7 4 -10 11 -7 15 2 5 -7 19 -22 32 -23 22 -25 22
-20 4 38 -136 72 -340 97 -595 11 -111 11 -321 -1 -390 -21 -134 -20 -130 -43
-130 -41 0 -56 -23 -81 -120 -14 -52 -25 -103 -25 -115 0 -11 -11 -36 -24 -55
-21 -32 -80 -150 -134 -272 -20 -44 -20 -48 -4 -68 38 -47 226 -70 577 -70
121 0 261 5 310 10 132 15 235 53 235 86 0 8 -36 87 -81 177 -74 148 -104 228
-139 359 -11 43 -17 49 -50 59 -35 11 -39 16 -56 73 -15 50 -18 98 -18 271 0
124 5 239 12 280 23 124 23 118 -13 141 l-33 22 -6 -42 c-3 -22 -11 -120 -17
-216 -12 -164 -6 -336 16 -535 3 -22 -8 11 -25 73 -29 110 -29 117 -25 290 3
97 13 230 22 296 11 75 13 123 7 132 -5 8 -77 43 -161 78 -83 35 -155 66 -161
70 -5 3 -15 33 -21 67 -8 39 -16 58 -21 50 -11 -19 -18 -1 -18 49 0 65 -1 74
-9 67 -3 -4 -11 1 -18 10 -11 14 -13 13 -17 -10z m119 -279 c-3 -8 -6 -5 -6 6
-1 11 2 17 5 13 3 -3 4 -12 1 -19z m213 -628 c0 -5 -7 -10 -16 -10 -8 0 -12 5
-9 10 3 6 10 10 16 10 5 0 9 -4 9 -10z m150 -125 c0 -25 -4 -45 -8 -45 -5 0
-8 10 -6 23 1 12 3 32 3 45 2 42 11 22 11 -23z m-167 20 c-1 -5 4 -16 10 -23
8 -11 5 -18 -13 -33 -31 -23 -33 -23 -55 1 -12 13 -15 27 -11 45 6 22 11 26
39 23 18 -2 31 -7 30 -13z m279 -305 c15 -63 27 -126 28 -139 0 -21 3 -23 30
-17 18 3 30 1 30 -5 0 -6 -4 -7 -10 -4 -5 3 -10 2 -10 -4 0 -5 5 -13 10 -16
15 -9 12 -25 -5 -25 -8 0 -15 -4 -15 -10 0 -5 6 -10 13 -10 13 0 67 -120 67
-148 0 -6 4 -12 10 -12 17 0 39 -45 33 -68 -7 -29 -21 -28 -33 2 -5 13 -15 27
-22 31 -10 6 -11 5 0 -6 6 -7 12 -17 12 -22 0 -14 -43 -3 -48 12 -3 9 0 11 8
6 9 -5 11 -4 6 4 -4 6 -11 9 -16 6 -5 -3 -11 -1 -15 5 -5 9 15 15 38 11 4 0 7
6 7 14 0 13 -18 20 -42 16 -4 0 -12 8 -18 19 -7 14 -7 20 0 20 5 0 10 -4 10
-10 0 -5 7 -10 16 -10 12 0 15 6 10 23 -4 12 -9 30 -11 40 -6 26 -13 34 -35
40 -17 4 -20 2 -15 -16 5 -20 5 -20 -5 -4 -9 14 -9 22 0 33 7 7 10 15 6 15 -3
1 -10 2 -16 3 -10 1 -39 37 -40 49 0 4 7 7 15 7 18 0 20 54 6 110 -5 19 -15
61 -21 92 -6 32 -19 65 -28 74 -14 15 -14 16 3 13 16 -3 25 -27 47 -119z
m-579 93 c-14 -13 -27 -51 -42 -126 -12 -59 -19 -112 -16 -117 3 -5 -2 -30
-11 -56 -14 -41 -14 -48 -1 -55 13 -8 12 -14 -5 -49 -25 -50 -32 -51 -23 -3 5
31 4 36 -6 25 -7 -6 -13 -29 -14 -50 0 -28 -4 -39 -15 -38 -12 1 -14 -9 -12
-46 3 -40 1 -48 -14 -48 -10 0 -25 -7 -35 -16 -33 -30 -26 2 28 121 32 69 54
134 54 152 0 21 6 36 17 42 9 5 18 20 19 33 0 13 11 74 24 136 21 106 23 112
47 112 24 0 24 0 5 -17z m235 7 c19 0 32 -3 28 -7 -9 -9 -126 -10 -126 -1 0 3
-8 9 -17 12 -10 3 4 3 31 1 27 -3 65 -5 84 -5z m163 -103 c14 -81 14 -134 -2
-153 -12 -15 8 -104 28 -119 9 -7 16 -37 19 -75 3 -39 11 -69 19 -76 8 -6 19
-22 24 -37 10 -25 8 -26 -27 -30 -33 -3 -35 -5 -14 -12 33 -11 9 -25 -43 -24
-40 0 -40 0 -15 14 l25 14 -37 1 c-27 0 -38 -4 -38 -14 0 -13 -4 -13 -27 0
-16 7 -35 14 -43 13 -8 0 -5 -4 8 -9 12 -5 22 -11 22 -14 0 -2 -43 -3 -96 -1
-67 2 -100 7 -106 17 -7 9 -11 10 -14 1 -8 -19 -44 24 -44 53 0 16 4 23 11 18
6 -3 15 0 20 7 12 19 11 79 -1 79 -5 0 -12 11 -16 25 -4 15 -11 22 -18 18 -7
-4 -8 -3 -1 5 6 6 21 13 34 15 12 2 26 9 31 16 6 10 9 10 15 1 9 -14 -3 -100
-14 -100 -12 0 -11 -49 0 -87 12 -39 29 -44 29 -9 0 13 7 27 16 30 8 3 13 10
10 15 -4 5 -1 11 5 13 9 3 9 10 -1 27 -10 19 -10 22 2 16 7 -3 4 0 -6 9 -18
14 -18 17 -2 41 9 14 19 25 22 25 4 0 0 -8 -7 -17 -11 -15 -11 -16 1 -5 8 6
23 12 35 13 17 1 16 2 -5 9 l-25 8 28 1 c27 1 38 23 17 36 -5 3 -7 0 -4 -8 7
-20 -48 -30 -59 -11 -4 8 -18 14 -31 14 -19 0 -22 4 -18 29 3 26 9 30 43 33
21 2 39 0 39 -3 0 -15 40 4 41 20 1 14 2 13 6 -1 2 -10 10 -18 18 -18 7 0 18
-13 24 -30 9 -26 8 -30 -8 -30 -23 0 -36 -30 -19 -42 7 -4 9 -8 5 -8 -5 0 -1
-7 7 -16 20 -19 20 -35 3 -58 -16 -22 -10 -66 8 -66 7 0 15 -10 18 -22 12 -45
15 -10 7 82 -4 55 -4 105 2 120 5 13 8 36 7 50 -2 39 0 43 14 32 18 -15 57
-11 57 6 0 7 -5 10 -10 7 -19 -12 -27 40 -25 150 1 61 3 112 4 114 0 2 10 -4
20 -13 12 -11 24 -44 32 -89z m-395 -193 c-3 -9 -6 -19 -6 -24 0 -15 -41 -19
-47 -4 -9 24 5 44 33 44 20 0 25 -4 20 -16z m464 7 c3 0 7 -12 8 -26 1 -21 -2
-25 -27 -25 -23 0 -31 6 -39 29 -10 28 -10 29 21 27 18 -2 34 -4 37 -5z m40
-11 c6 -11 8 -20 6 -20 -3 0 -10 9 -16 20 -6 11 -8 20 -6 20 3 0 10 -9 16 -20z
m-455 -38 c-9 -9 -25 11 -25 31 1 21 1 21 15 -3 7 -14 12 -27 10 -28z m28 26
c6 -21 2 -36 -7 -27 -10 11 -16 49 -8 49 5 0 12 -10 15 -22z m471 -4 c3 -8 2
-12 -4 -9 -6 3 -10 10 -10 16 0 14 7 11 14 -7z m150 -30 c10 -25 -1 -29 -14
-5 -6 12 -7 21 -1 21 5 0 12 -7 15 -16z m-210 -20 c3 -8 2 -12 -4 -9 -6 3 -10
10 -10 16 0 14 7 11 14 -7z m-519 -4 c3 -5 1 -10 -4 -10 -6 0 -11 5 -11 10 0
6 2 10 4 10 3 0 8 -4 11 -10z m775 -65 c7 -9 8 -15 2 -15 -5 0 -12 7 -16 15
-3 8 -4 15 -2 15 2 0 9 -7 16 -15z m-217 -76 c-4 -12 0 -19 9 -19 8 0 20 -12
27 -27 l13 -28 -33 30 -33 30 17 -27 c21 -33 5 -38 -17 -6 -11 16 -12 24 -4
29 6 4 8 16 6 27 -4 14 -2 19 7 16 7 -3 11 -14 8 -25z m244 14 c-4 -3 -1 -13
6 -22 11 -14 10 -14 -5 -2 -21 15 -23 31 -6 31 6 0 8 -3 5 -7z m-977 -20 c0
-25 -16 -48 -24 -35 -3 6 -2 14 4 17 8 5 7 11 -1 21 -9 11 -8 14 5 14 9 0 16
-8 16 -17z m100 -23 c0 -11 -4 -20 -9 -20 -5 0 -7 9 -4 20 3 11 7 20 9 20 2 0
4 -9 4 -20z m107 -42 c-3 -8 -6 -5 -6 6 -1 11 2 17 5 13 3 -3 4 -12 1 -19z"/>
<path d="M1593 235 c6 -95 13 -115 38 -115 23 0 25 18 4 26 -17 7 -34 65 -32
109 2 25 7 31 30 33 24 3 39 21 20 23 -5 0 -21 2 -37 3 l-29 2 6 -81z"/>
<path d="M1644 245 c-4 -9 -2 -21 3 -26 7 -7 12 -3 16 10 6 25 -11 39 -19 16z"/>
<path d="M1486 237 c3 -10 9 -15 12 -12 3 3 0 11 -7 18 -10 9 -11 8 -5 -6z"/>
<path d="M1480 203 c-35 -13 -41 -58 -10 -68 12 -4 27 -1 35 5 14 12 10 40 -7
40 -5 0 -7 -4 -4 -9 3 -5 -1 -11 -9 -15 -21 -8 -19 24 3 40 18 14 16 16 -8 7z"/>
<path d="M1240 349 c0 -5 5 -7 10 -4 6 3 10 8 10 11 0 2 -4 4 -10 4 -5 0 -10
-5 -10 -11z"/>
<path d="M1700 356 c0 -2 7 -9 15 -16 13 -11 14 -10 9 4 -5 14 -24 23 -24 12z"/>
<path d="M1320 1891 c0 -17 22 -24 30 -10 6 8 11 0 15 -24 6 -31 10 -35 21
-26 21 17 17 35 -11 53 -27 18 -55 21 -55 7z"/>
<path d="M1446 1835 c4 -8 1 -15 -5 -15 -15 0 -14 -17 2 -22 6 -3 23 6 37 20
14 14 17 20 8 13 -15 -11 -19 -11 -24 3 -3 9 -10 16 -15 16 -4 0 -6 -7 -3 -15z"/>
<path d="M1350 1821 c0 -7 -4 -9 -10 -6 -5 3 -10 -1 -10 -9 0 -25 17 -27 23
-4 4 12 4 24 2 27 -3 2 -5 -1 -5 -8z"/>
<path d="M1673 1802 c9 -10 15 -21 12 -24 -3 -2 2 -5 10 -5 24 0 13 29 -14 39
-24 8 -24 8 -8 -10z"/>
<path d="M1721 1774 c0 -11 3 -14 6 -6 3 7 2 16 -1 19 -3 4 -6 -2 -5 -13z"/>
<path d="M1775 1757 c-4 -10 -5 -21 -1 -24 10 -10 18 4 13 24 -4 17 -4 17 -12
0z"/>
<path d="M1485 1740 c-3 -6 1 -7 9 -4 18 7 21 14 7 14 -6 0 -13 -4 -16 -10z"/>
<path d="M1557 1726 c-3 -8 3 -30 14 -50 11 -21 17 -42 13 -49 -5 -8 -4 -9 4
-2 6 6 14 30 17 54 4 36 2 42 -10 37 -9 -3 -15 0 -15 9 0 19 -16 19 -23 1z"/>
<path d="M1371 1714 c0 -11 3 -14 6 -6 3 7 2 16 -1 19 -3 4 -6 -2 -5 -13z"/>
<path d="M1813 1675 c0 -22 2 -30 4 -17 2 12 2 30 0 40 -3 9 -5 -1 -4 -23z"/>
<path d="M1762 1670 c0 -14 2 -19 5 -12 2 6 2 18 0 25 -3 6 -5 1 -5 -13z"/>
<path d="M1681 1658 c0 -9 -4 -25 -7 -35 -5 -17 -5 -17 6 0 6 10 9 25 7 35 -4
15 -5 15 -6 0z"/>
<path d="M1785 1590 c3 -5 8 -10 11 -10 2 0 4 5 4 10 0 6 -5 10 -11 10 -5 0
-7 -4 -4 -10z"/>
<path d="M1771 1564 c0 -12 6 -24 14 -28 11 -4 15 1 15 17 0 17 -2 19 -9 8 -7
-11 -10 -10 -14 5 -4 17 -5 17 -6 -2z"/>
<path d="M1733 1533 c-8 -3 -2 -14 16 -29 31 -26 41 -29 41 -14 0 6 -7 10 -15
10 -9 0 -19 8 -23 18 -4 11 -13 17 -19 15z"/>
</g>
</svg>
